<?xml version="1.0" encoding="UTF-8"?>
<svg width="73px" height="66px" viewBox="0 0 73 66" version="1.1" xmlns="http://www.w3.org/2000/svg" xmlns:xlink="http://www.w3.org/1999/xlink">
    <!-- Generator: Sketch 50.2 (55047) - http://www.bohemiancoding.com/sketch -->
    <title>icon</title>
    <desc>Created with Sketch.</desc>
    <defs>
        <path d="M54.921748,25 C54.921748,21.2814645 50.3719512,17.7574371 43.3963415,15.5720824 C45.0060976,8.29519451 44.2906504,2.50572082 41.1382114,0.652173913 C40.4115854,0.217391304 39.5619919,0.0114416476 38.6341463,0.0114416476 L38.6341463,2.56292906 C39.148374,2.56292906 39.5619919,2.66590389 39.9085366,2.8604119 C41.4288618,3.75286041 42.0884146,7.15102975 41.574187,11.5217391 C41.4512195,12.597254 41.25,13.7299771 41.004065,14.8855835 C38.8130081,14.3363844 36.4207317,13.9130435 33.9054878,13.6384439 C32.3963415,11.5217391 30.8313008,9.59954233 29.2550813,7.91762014 C32.8993902,4.45080092 36.320122,2.55148741 38.6453252,2.55148741 L38.6453252,0 C35.5711382,0 31.546748,2.24256293 27.4776423,6.13272311 C23.4085366,2.26544622 19.3841463,0.0457665904 16.3099593,0.0457665904 L16.3099593,2.597254 C18.6239837,2.597254 22.0558943,4.48512586 25.7002033,7.92906178 C24.1351626,9.61098398 22.570122,11.5217391 21.0833333,13.6384439 C18.5569106,13.9130435 16.1646341,14.3363844 13.9735772,14.8970252 C13.7164634,13.7528604 13.5264228,12.6430206 13.3922764,11.5789474 C12.8668699,7.20823799 13.5152439,3.81006865 15.0243902,2.90617849 C15.3597561,2.70022883 15.7957317,2.60869565 16.3099593,2.60869565 L16.3099593,0.057208238 C15.370935,0.057208238 14.5213415,0.263157895 13.7835366,0.697940503 C10.6422764,2.55148741 9.93800813,8.32951945 11.5589431,15.583524 C4.60569106,17.7803204 0.0782520325,21.2929062 0.0782520325,25 C0.0782520325,28.7185355 4.62804878,32.2425629 11.6036585,34.4279176 C9.99390244,41.7048055 10.7093496,47.4942792 13.8617886,49.3478261 C14.5884146,49.7826087 15.4380081,49.9885584 16.3770325,49.9885584 C19.4512195,49.9885584 23.4756098,47.7459954 27.5447154,43.8558352 C31.6138211,47.7231121 35.6382114,49.9427918 38.7123984,49.9427918 C39.6514228,49.9427918 40.5010163,49.7368421 41.2388211,49.3020595 C44.3800813,47.4485126 45.0843496,41.6704805 43.4634146,34.416476 C50.3943089,32.2311213 54.921748,28.7070938 54.921748,25 Z M40.3668699,17.3684211 C39.953252,18.8443936 39.4390244,20.3661327 38.8577236,21.8878719 C38.3993902,20.97254 37.9186992,20.0572082 37.3932927,19.1418764 C36.879065,18.2265446 36.3313008,17.3340961 35.7835366,16.4645309 C37.370935,16.7048055 38.902439,17.0022883 40.3668699,17.3684211 Z M35.2469512,29.5537757 C34.375,31.0983982 33.4806911,32.5629291 32.5528455,33.9244851 C30.8871951,34.0732265 29.199187,34.1533181 27.5,34.1533181 C25.8119919,34.1533181 24.1239837,34.0732265 22.4695122,33.9359268 C21.5416667,32.5743707 20.6361789,31.1212815 19.7642276,29.5881007 C18.9146341,28.0892449 18.1432927,26.5675057 17.4390244,25.0343249 C18.1321138,23.5011442 18.9146341,21.9679634 19.7530488,20.4691076 C20.625,18.9244851 21.5193089,17.4599542 22.4471545,16.0983982 C24.1128049,15.9496568 25.800813,15.8695652 27.5,15.8695652 C29.1880081,15.8695652 30.8760163,15.9496568 32.5304878,16.0869565 C33.4583333,17.4485126 34.3638211,18.9016018 35.2357724,20.4347826 C36.0853659,21.9336384 36.8567073,23.4553776 37.5609756,24.9885584 C36.8567073,26.5217391 36.0853659,28.0549199 35.2469512,29.5537757 Z M38.8577236,28.0663616 C39.4613821,29.5995423 39.9756098,31.1327231 40.4004065,32.6201373 C38.9359756,32.98627 37.3932927,33.2951945 35.7947154,33.5354691 C36.3424797,32.6544622 36.8902439,31.7505721 37.4044715,30.8237986 C37.9186992,29.9084668 38.3993902,28.9816934 38.8577236,28.0663616 Z M27.5223577,40.2745995 C26.4827236,39.1762014 25.4430894,37.9519451 24.4146341,36.6132723 C25.4207317,36.6590389 26.449187,36.6933638 27.4888211,36.6933638 C28.5396341,36.6933638 29.5792683,36.6704805 30.5965447,36.6132723 C29.5904472,37.9519451 28.550813,39.1762014 27.5223577,40.2745995 Z M19.2052846,33.5354691 C17.6178862,33.2951945 16.0863821,32.9977117 14.6219512,32.6315789 C15.0355691,31.1556064 15.5497967,29.6338673 16.1310976,28.1121281 C16.5894309,29.02746 17.070122,29.9427918 17.5955285,30.8581236 C18.120935,31.7734554 18.6575203,32.6659039 19.2052846,33.5354691 Z M27.4664634,9.72540046 C28.5060976,10.8237986 29.5457317,12.0480549 30.574187,13.3867277 C29.5680894,13.3409611 28.5396341,13.3066362 27.5,13.3066362 C26.449187,13.3066362 25.4095528,13.3295195 24.3922764,13.3867277 C25.398374,12.0480549 26.4380081,10.8237986 27.4664634,9.72540046 Z M19.1941057,16.4645309 C18.6463415,17.3455378 18.0985772,18.2494279 17.5843496,19.1762014 C17.070122,20.0915332 16.5894309,21.006865 16.1310976,21.9221968 C15.527439,20.389016 15.0132114,18.8558352 14.5884146,17.3684211 C16.0528455,17.01373 17.5955285,16.7048055 19.1941057,16.4645309 Z M9.07723577,30.7894737 C5.1199187,29.0617849 2.55995935,26.7963387 2.55995935,25 C2.55995935,23.2036613 5.1199187,20.9267735 9.07723577,19.2105263 C10.0386179,18.7871854 11.0894309,18.409611 12.1737805,18.0549199 C12.8109756,20.2974828 13.6493902,22.6315789 14.6890244,25.0228833 C13.6605691,27.402746 12.8333333,29.7254005 12.2073171,31.9565217 C11.1006098,31.6018307 10.0497967,31.2128146 9.07723577,30.7894737 Z M15.0914634,47.1395881 C13.5711382,46.2471396 12.9115854,42.8489703 13.425813,38.4782609 C13.5487805,37.402746 13.75,36.2700229 13.995935,35.1144165 C16.1869919,35.6636156 18.5792683,36.0869565 21.0945122,36.3615561 C22.6036585,38.4782609 24.1686992,40.4004577 25.7449187,42.0823799 C22.1006098,45.5491991 18.679878,47.4485126 16.3546748,47.4485126 C15.851626,47.4370709 15.4268293,47.3340961 15.0914634,47.1395881 Z M41.6077236,38.4210526 C42.1331301,42.791762 41.4847561,46.1899314 39.9756098,47.0938215 C39.6402439,47.2997712 39.2042683,47.3913043 38.6900407,47.3913043 C36.3760163,47.3913043 32.9441057,45.5034325 29.2997967,42.0594966 C30.8648374,40.3775744 32.429878,38.4668192 33.9166667,36.3501144 C36.4430894,36.0755149 38.8353659,35.6521739 41.0264228,35.0915332 C41.2835366,36.2471396 41.4847561,37.3569794 41.6077236,38.4210526 Z M45.9115854,30.7894737 C44.9502033,31.2128146 43.8993902,31.590389 42.8150407,31.9450801 C42.1778455,29.7025172 41.3394309,27.3684211 40.2997967,24.9771167 C41.328252,22.597254 42.1554878,20.2745995 42.7815041,18.0434783 C43.8882114,18.3981693 44.9390244,18.7871854 45.9227642,19.2105263 C49.8800813,20.9382151 52.4400407,23.2036613 52.4400407,25 C52.4288618,26.7963387 49.8689024,29.0732265 45.9115854,30.7894737 Z" id="path-1"></path>
        <filter x="-12.8%" y="-10.0%" width="125.5%" height="128.0%" filterUnits="objectBoundingBox" id="filter-2">
            <feOffset dx="0" dy="2" in="SourceAlpha" result="shadowOffsetOuter1"></feOffset>
            <feGaussianBlur stdDeviation="2" in="shadowOffsetOuter1" result="shadowBlurOuter1"></feGaussianBlur>
            <feColorMatrix values="0 0 0 0 0   0 0 0 0 0   0 0 0 0 0  0 0 0 0.254528986 0" type="matrix" in="shadowBlurOuter1"></feColorMatrix>
        </filter>
        <ellipse id="path-3" cx="27.4888211" cy="25" rx="5.10873984" ry="5.22883295"></ellipse>
        <filter x="-68.5%" y="-47.8%" width="237.0%" height="233.9%" filterUnits="objectBoundingBox" id="filter-4">
            <feOffset dx="0" dy="2" in="SourceAlpha" result="shadowOffsetOuter1"></feOffset>
            <feGaussianBlur stdDeviation="2" in="shadowOffsetOuter1" result="shadowBlurOuter1"></feGaussianBlur>
            <feColorMatrix values="0 0 0 0 0   0 0 0 0 0   0 0 0 0 0  0 0 0 0.254528986 0" type="matrix" in="shadowBlurOuter1"></feColorMatrix>
        </filter>
    </defs>
    <g id="icon" stroke="none" stroke-width="1" fill="none" fill-rule="evenodd">
        <g id="react" transform="translate(9.000000, 8.000000)" fill-rule="nonzero">
            <g id="Shape">
                <use fill="black" fill-opacity="1" filter="url(#filter-2)" xlink:href="#path-1"></use>
                <use fill="#FFFFFF" fill-rule="evenodd" xlink:href="#path-1"></use>
            </g>
            <g id="Oval">
                <use fill="black" fill-opacity="1" filter="url(#filter-4)" xlink:href="#path-3"></use>
                <use fill="#FFFFFF" fill-rule="evenodd" xlink:href="#path-3"></use>
            </g>
        </g>
    </g>
</svg>