<svg width="299" height="243" xmlns="http://www.w3.org/2000/svg"><path d="M93.7188 242.187c112.4603 0 173.9562-93.1676 173.9562-173.9562 0-2.6463-.0539-5.2807-.1726-7.903 11.938-8.6302 22.3145-19.4 30.4977-31.66-10.9546 4.8695-22.7436 8.1475-35.1107 9.6256 12.6234-7.5693 22.3144-19.543 26.8858-33.8174-11.8129 7.003-24.8952 12.093-38.8238 14.8406C239.794 7.4322 223.9106 0 206.3224 0c-33.7637 0-61.1442 27.3805-61.1442 61.1323 0 4.7979.5364 9.4646 1.5854 13.9406C95.948 72.516 50.89 48.1871 20.738 11.1929c-5.2508 9.0355-8.2785 19.5312-8.2785 30.7302 0 21.2118 10.7936 39.9383 27.2076 50.893-10.0307-.31-19.4536-3.0636-27.6904-7.6469-.009.2566-.009.5067-.009.7808 0 29.6096 21.0748 54.332 49.0513 59.9344-5.1376 1.4006-10.5434 2.1516-16.122 2.1516-3.9336 0-7.766-.3872-11.491-1.1027 7.7839 24.2933 30.3546 41.9708 57.1153 42.4655-20.9258 16.402-47.2871 26.1706-75.9371 26.1706-4.929 0-9.7984-.2804-14.5843-.8463 27.0587 17.3438 59.1894 27.464 93.722 27.464" fill-rule="nonzero" fill="#FFF"/></svg>
