<svg width="146" height="126" xmlns="http://www.w3.org/2000/svg"><g fill-rule="nonzero" fill="none"><path d="M145.283 4.63L122.42 119.899s-3.197 7.994-11.99 4.157L57.673 83.607l-19.184-9.272L6.195 63.463S1.239 61.705.759 57.868c-.48-3.837 5.596-5.915 5.596-5.915L134.73 1.593s10.552-4.636 10.552 3.038" fill="#FFF"/><path d="M53.618 118.603s-1.54-.143-3.46-6.22c-1.917-6.075-11.67-38.048-11.67-38.048l77.538-49.24s4.477-2.718 4.317 0c0 0 .799.479-1.6 2.716-2.397 2.24-60.91 54.837-60.91 54.837" fill="#D2E5F1"/><path d="M77.901 99.115l-20.867 19.026s-1.631 1.238-3.416.462l3.995-35.34" fill="#B5CFE4"/></g></svg>